# xmcd CD database file
#
# Track frame offsets:
#	150
#	16557
#	30254
#	47609
#	68063
#	87587
#	103162
#	120770
#	134436
#	148362
#	168824
#	189659
#
# Disc length: 2707 seconds
#
# Revision: 0
# Processed by: cddbd v1.5.2PL0 Copyright (c) Steve Scherf et al.
# Submitted via: ACXtractor (MTCDDB.DLL V2003.07.15)
#
DISCID=970a910c
DTITLE=Rachel Summerell - No Secrets
DYEAR=2016
DGENRE=Country
TTITLE0=You're My Man
TTITLE1=A Dream of You
TTITLE2=Too Caught Up
TTITLE3=There's a Kiss on Your Lips
TTITLE4=Stop the Merry-go-Round
TTITLE5=Just be There
TTITLE6=One of the Lucky Oners
TTITLE7=Fat and Forty
TTITLE8=A Man I Know
TTITLE9=Sparrow Song
TTITLE10=I'll Miss You
TTITLE11=Too Far Gone
EXTD=ID3G:   2 YEAR: 2016
EXTT0=
EXTT1=
EXTT2=
EXTT3=
EXTT4=
EXTT5=
EXTT6=
EXTT7=
EXTT8=
EXTT9=
EXTT10=
EXTT11=
PLAYORDER=
